<?xml version="1.0" encoding="iso-8859-1"?>
<!-- Uploaded to: SVG Repo, www.svgrepo.com, Generator: SVG Repo Mixer Tools -->
<!DOCTYPE svg PUBLIC "-//W3C//DTD SVG 1.1//EN" "http://www.w3.org/Graphics/SVG/1.1/DTD/svg11.dtd">
<svg fill="#000000" version="1.1" id="Capa_1" xmlns="http://www.w3.org/2000/svg" xmlns:xlink="http://www.w3.org/1999/xlink" 
	 width="800px" height="800px" viewBox="0 0 31.961 31.961"
	 xml:space="preserve">
<g>
	<g>
		<circle cx="21.736" cy="12.731" r="5.756"/>
		<path d="M26.396,21.091l-4.789,6.605l-4.496-6.189c-1.796,1.233-4.113,3.953-5.455,9.057h20.304
			C30.641,25.216,28.242,22.36,26.396,21.091z"/>
		<path d="M24.557,19.109l-1.359,0.574c-0.281-0.481-0.797-0.808-1.394-0.808c-0.595,0-1.106,0.322-1.389,0.797l-1.368-0.582
			c-0.195-0.088-0.445-0.066-0.626,0.052c-0.183,0.121-0.313,0.321-0.313,0.539v1.7c0,0.205,0.119,0.396,0.283,0.519
			c0.163,0.123,0.389,0.158,0.584,0.099c0.534-0.164,1.202-0.362,1.582-0.48c0.295,0.357,0.74,0.592,1.244,0.592
			c0.48,0,0.916-0.218,1.215-0.558c0.387,0.116,1.059,0.319,1.606,0.481c0.19,0.062,0.382,0.023,0.541-0.1
			c0.167-0.123,0.235-0.314,0.235-0.518v-1.713c0-0.218-0.084-0.418-0.264-0.535C24.955,19.048,24.755,19.027,24.557,19.109z"/>
		<path d="M16.067,20.014l0.217-0.155v-0.177c0-0.06,0.002-0.119,0.007-0.177h-1.829v-0.729c0-0.673,0.546-1.218,1.218-1.218h0.214
			c-0.509-0.615-0.922-1.311-1.218-2.066H2.552V3.584h19.565v1.578c0.9,0.044,1.761,0.248,2.553,0.581V3.106
			c0-0.944-0.766-1.709-1.71-1.709H1.71C0.766,1.397,0,2.164,0,3.106v12.744c0,0.943,0.766,1.709,1.71,1.709h7.278
			c0.673,0,1.219,0.545,1.219,1.218v0.728H6.984c-0.771,0-1.396,0.625-1.396,1.396v0.792h4.623h3.947
			C14.876,20.915,15.543,20.374,16.067,20.014z"/>
		<path d="M16.537,7.225c0.259-0.246,0.535-0.473,0.83-0.681c-0.951-1.475-2.607-2.454-4.49-2.454c-2.942,0-5.336,2.395-5.336,5.337
			c0,0.443,0.068,0.903,0.208,1.401l-0.982,2.773c-0.076,0.214-0.032,0.453,0.113,0.627c0.146,0.174,0.373,0.258,0.598,0.221
			l2.673-0.442c0.83,0.496,1.768,0.757,2.727,0.757c0.522,0,1.025-0.076,1.501-0.216c-0.085-0.345-0.146-0.698-0.182-1.06
			c-0.416,0.135-0.858,0.209-1.319,0.209c-0.821,0-1.624-0.241-2.323-0.696l-0.174-0.114l-1.612,0.267
			c-0.158,0.026-0.318-0.033-0.421-0.156c-0.104-0.123-0.134-0.291-0.08-0.442l0.604-1.704L8.82,10.684
			c-0.145-0.469-0.211-0.869-0.211-1.259c0-2.355,1.915-4.272,4.27-4.272C14.428,5.155,15.788,5.986,16.537,7.225z"/>
		<path d="M13.246,13.186v-0.898c0.386-0.065,0.703-0.197,0.956-0.375c0.079-0.736,0.265-1.44,0.54-2.097
			c-0.219-0.428-0.664-0.743-1.401-1.003c-0.795-0.299-1.125-0.496-1.125-0.804c0-0.262,0.197-0.523,0.806-0.523
			c0.673,0,1.101,0.214,1.344,0.317l0.255-1.056c-0.308-0.149-0.645-0.28-1.374-0.309V5.65h-0.851v0.852
			C11.423,6.698,10.8,7.344,10.8,8.167c0,0.905,0.678,1.373,1.677,1.71c0.692,0.233,0.99,0.458,0.99,0.813
			c0,0.374-0.369,0.58-0.9,0.58c-0.607,0-1.161-0.196-1.555-0.411l-0.243,1.093c0.355,0.206,0.897,0.374,1.627,0.402v0.833
			L13.246,13.186L13.246,13.186z"/>
	</g>
</g>
</svg>